<mxfile host="app.diagrams.net" modified="2024-05-23T07:43:26.855Z" agent="Mozilla/5.0 (Windows NT 10.0; Win64; x64) AppleWebKit/537.36 (KHTML, like Gecko) Chrome/124.0.0.0 Safari/537.36" etag="7oYDmJHYFc5l2_HWuP2x" version="24.0.2" type="device">
  <diagram id="C5RBs43oDa-KdzZeNtuy" name="Page-1">
    <mxGraphModel dx="1434" dy="746" grid="1" gridSize="10" guides="1" tooltips="1" connect="1" arrows="1" fold="1" page="1" pageScale="1" pageWidth="827" pageHeight="1169" math="0" shadow="0">
      <root>
        <mxCell id="WIyWlLk6GJQsqaUBKTNV-0" />
        <mxCell id="WIyWlLk6GJQsqaUBKTNV-1" parent="WIyWlLk6GJQsqaUBKTNV-0" />
        <mxCell id="GMDL_d_8JTyKxyOyi_9L-31" style="edgeStyle=orthogonalEdgeStyle;rounded=0;orthogonalLoop=1;jettySize=auto;html=1;exitX=0.5;exitY=1;exitDx=0;exitDy=0;entryX=0.5;entryY=0;entryDx=0;entryDy=0;" edge="1" parent="WIyWlLk6GJQsqaUBKTNV-1" source="WIyWlLk6GJQsqaUBKTNV-3" target="WIyWlLk6GJQsqaUBKTNV-6">
          <mxGeometry relative="1" as="geometry" />
        </mxCell>
        <mxCell id="WIyWlLk6GJQsqaUBKTNV-3" value="Ler arquivo template" style="rounded=1;whiteSpace=wrap;html=1;fontSize=12;glass=0;strokeWidth=1;shadow=0;" parent="WIyWlLk6GJQsqaUBKTNV-1" vertex="1">
          <mxGeometry x="20" y="80" width="120" height="40" as="geometry" />
        </mxCell>
        <mxCell id="WIyWlLk6GJQsqaUBKTNV-4" value="Sim" style="rounded=0;html=1;jettySize=auto;orthogonalLoop=1;fontSize=11;endArrow=classic;endFill=1;endSize=6;strokeWidth=1;shadow=0;labelBackgroundColor=none;edgeStyle=orthogonalEdgeStyle;entryX=0;entryY=0.5;entryDx=0;entryDy=0;exitX=0.5;exitY=1;exitDx=0;exitDy=0;" parent="WIyWlLk6GJQsqaUBKTNV-1" source="WIyWlLk6GJQsqaUBKTNV-6" target="GMDL_d_8JTyKxyOyi_9L-11" edge="1">
          <mxGeometry x="-0.7778" y="20" relative="1" as="geometry">
            <mxPoint as="offset" />
            <mxPoint x="80" y="260" as="sourcePoint" />
            <mxPoint x="175" y="425" as="targetPoint" />
          </mxGeometry>
        </mxCell>
        <mxCell id="WIyWlLk6GJQsqaUBKTNV-5" value="Não" style="edgeStyle=orthogonalEdgeStyle;rounded=0;html=1;jettySize=auto;orthogonalLoop=1;fontSize=11;endArrow=block;endFill=0;endSize=8;strokeWidth=1;shadow=0;labelBackgroundColor=none;entryX=0;entryY=0.5;entryDx=0;entryDy=0;" parent="WIyWlLk6GJQsqaUBKTNV-1" source="WIyWlLk6GJQsqaUBKTNV-6" target="GMDL_d_8JTyKxyOyi_9L-0" edge="1">
          <mxGeometry x="-0.2" y="10" relative="1" as="geometry">
            <mxPoint as="offset" />
            <mxPoint x="210" y="200" as="targetPoint" />
          </mxGeometry>
        </mxCell>
        <mxCell id="WIyWlLk6GJQsqaUBKTNV-6" value="Existe arquivo de saída?" style="rhombus;whiteSpace=wrap;html=1;shadow=0;fontFamily=Helvetica;fontSize=12;align=center;strokeWidth=1;spacing=6;spacingTop=-4;" parent="WIyWlLk6GJQsqaUBKTNV-1" vertex="1">
          <mxGeometry x="30" y="160" width="100" height="80" as="geometry" />
        </mxCell>
        <mxCell id="GMDL_d_8JTyKxyOyi_9L-18" style="edgeStyle=orthogonalEdgeStyle;rounded=0;orthogonalLoop=1;jettySize=auto;html=1;exitX=0.5;exitY=1;exitDx=0;exitDy=0;entryX=0.5;entryY=0;entryDx=0;entryDy=0;" edge="1" parent="WIyWlLk6GJQsqaUBKTNV-1" source="WIyWlLk6GJQsqaUBKTNV-12" target="GMDL_d_8JTyKxyOyi_9L-7">
          <mxGeometry relative="1" as="geometry" />
        </mxCell>
        <mxCell id="WIyWlLk6GJQsqaUBKTNV-12" value="Analisa uma linha" style="rounded=1;whiteSpace=wrap;html=1;fontSize=12;glass=0;strokeWidth=1;shadow=0;" parent="WIyWlLk6GJQsqaUBKTNV-1" vertex="1">
          <mxGeometry x="110" y="330" width="120" height="30" as="geometry" />
        </mxCell>
        <mxCell id="GMDL_d_8JTyKxyOyi_9L-13" style="edgeStyle=orthogonalEdgeStyle;rounded=0;orthogonalLoop=1;jettySize=auto;html=1;exitX=0.5;exitY=1;exitDx=0;exitDy=0;entryX=1;entryY=0.5;entryDx=0;entryDy=0;" edge="1" parent="WIyWlLk6GJQsqaUBKTNV-1" source="GMDL_d_8JTyKxyOyi_9L-0" target="GMDL_d_8JTyKxyOyi_9L-11">
          <mxGeometry relative="1" as="geometry">
            <mxPoint x="270" y="340" as="targetPoint" />
            <Array as="points">
              <mxPoint x="260" y="275" />
            </Array>
          </mxGeometry>
        </mxCell>
        <mxCell id="GMDL_d_8JTyKxyOyi_9L-0" value="Cria arquivo de saída" style="rounded=1;whiteSpace=wrap;html=1;fontSize=12;glass=0;strokeWidth=1;shadow=0;" vertex="1" parent="WIyWlLk6GJQsqaUBKTNV-1">
          <mxGeometry x="200" y="180" width="120" height="40" as="geometry" />
        </mxCell>
        <mxCell id="GMDL_d_8JTyKxyOyi_9L-5" value="Sim" style="rounded=0;html=1;jettySize=auto;orthogonalLoop=1;fontSize=11;endArrow=classic;endFill=1;endSize=6;strokeWidth=1;shadow=0;labelBackgroundColor=none;edgeStyle=orthogonalEdgeStyle;entryX=0;entryY=0.5;entryDx=0;entryDy=0;exitX=1;exitY=0.5;exitDx=0;exitDy=0;" edge="1" parent="WIyWlLk6GJQsqaUBKTNV-1" source="GMDL_d_8JTyKxyOyi_9L-7" target="GMDL_d_8JTyKxyOyi_9L-8">
          <mxGeometry y="10" relative="1" as="geometry">
            <mxPoint as="offset" />
            <mxPoint x="195" y="520" as="targetPoint" />
            <mxPoint x="280" y="420" as="sourcePoint" />
          </mxGeometry>
        </mxCell>
        <mxCell id="GMDL_d_8JTyKxyOyi_9L-7" value="&lt;p style=&quot;line-height: 120%;&quot;&gt;&lt;span style=&quot;background-color: initial;&quot;&gt;Existe a tag&lt;br&gt;&lt;/span&gt;&lt;span style=&quot;background-color: initial;&quot;&gt;&quot;&lt;/span&gt;&lt;span style=&quot;background-color: initial;&quot;&gt;&amp;lt;%&quot;&lt;/span&gt;&lt;/p&gt;" style="rhombus;whiteSpace=wrap;html=1;shadow=0;fontFamily=Helvetica;fontSize=12;align=center;strokeWidth=1;spacing=6;spacingTop=-4;" vertex="1" parent="WIyWlLk6GJQsqaUBKTNV-1">
          <mxGeometry x="120" y="400" width="100" height="80" as="geometry" />
        </mxCell>
        <mxCell id="GMDL_d_8JTyKxyOyi_9L-23" style="edgeStyle=orthogonalEdgeStyle;rounded=0;orthogonalLoop=1;jettySize=auto;html=1;entryX=0.5;entryY=0;entryDx=0;entryDy=0;exitX=0.5;exitY=0;exitDx=0;exitDy=0;" edge="1" parent="WIyWlLk6GJQsqaUBKTNV-1" source="GMDL_d_8JTyKxyOyi_9L-8" target="GMDL_d_8JTyKxyOyi_9L-21">
          <mxGeometry relative="1" as="geometry">
            <mxPoint x="310" y="580" as="sourcePoint" />
            <Array as="points">
              <mxPoint x="360" y="110" />
              <mxPoint x="461" y="110" />
            </Array>
          </mxGeometry>
        </mxCell>
        <mxCell id="GMDL_d_8JTyKxyOyi_9L-8" value="Extrai expressão" style="rounded=1;whiteSpace=wrap;html=1;fontSize=12;glass=0;strokeWidth=1;shadow=0;" vertex="1" parent="WIyWlLk6GJQsqaUBKTNV-1">
          <mxGeometry x="300" y="425" width="120" height="30" as="geometry" />
        </mxCell>
        <mxCell id="GMDL_d_8JTyKxyOyi_9L-14" style="edgeStyle=orthogonalEdgeStyle;rounded=0;orthogonalLoop=1;jettySize=auto;html=1;exitX=0.5;exitY=1;exitDx=0;exitDy=0;entryX=0.5;entryY=0;entryDx=0;entryDy=0;" edge="1" parent="WIyWlLk6GJQsqaUBKTNV-1" source="GMDL_d_8JTyKxyOyi_9L-11" target="WIyWlLk6GJQsqaUBKTNV-12">
          <mxGeometry relative="1" as="geometry" />
        </mxCell>
        <mxCell id="GMDL_d_8JTyKxyOyi_9L-11" value="" style="ellipse;whiteSpace=wrap;html=1;aspect=fixed;" vertex="1" parent="WIyWlLk6GJQsqaUBKTNV-1">
          <mxGeometry x="155" y="260" width="30" height="30" as="geometry" />
        </mxCell>
        <mxCell id="GMDL_d_8JTyKxyOyi_9L-19" value="Não" style="edgeStyle=orthogonalEdgeStyle;rounded=0;html=1;jettySize=auto;orthogonalLoop=1;fontSize=11;endArrow=classic;endFill=1;endSize=6;strokeWidth=1;shadow=0;labelBackgroundColor=none;entryX=0;entryY=0.5;entryDx=0;entryDy=0;exitX=0.5;exitY=1;exitDx=0;exitDy=0;" edge="1" parent="WIyWlLk6GJQsqaUBKTNV-1" source="GMDL_d_8JTyKxyOyi_9L-7" target="GMDL_d_8JTyKxyOyi_9L-41">
          <mxGeometry x="0.2273" y="15" relative="1" as="geometry">
            <mxPoint as="offset" />
            <mxPoint x="270" y="410" as="sourcePoint" />
            <mxPoint x="50" y="340" as="targetPoint" />
            <Array as="points">
              <mxPoint x="170" y="525" />
            </Array>
          </mxGeometry>
        </mxCell>
        <mxCell id="GMDL_d_8JTyKxyOyi_9L-21" value="&lt;p style=&quot;line-height: 120%;&quot;&gt;A expressão começa com &quot;=&quot;&lt;/p&gt;" style="rhombus;whiteSpace=wrap;html=1;shadow=0;fontFamily=Helvetica;fontSize=12;align=center;strokeWidth=1;spacing=6;spacingTop=-4;" vertex="1" parent="WIyWlLk6GJQsqaUBKTNV-1">
          <mxGeometry x="403.75" y="140" width="115" height="75" as="geometry" />
        </mxCell>
        <mxCell id="GMDL_d_8JTyKxyOyi_9L-26" value="Sim" style="rounded=0;html=1;jettySize=auto;orthogonalLoop=1;fontSize=11;endArrow=classic;endFill=1;endSize=6;strokeWidth=1;shadow=0;labelBackgroundColor=none;edgeStyle=orthogonalEdgeStyle;exitX=0.5;exitY=1;exitDx=0;exitDy=0;entryX=0.5;entryY=0;entryDx=0;entryDy=0;" edge="1" parent="WIyWlLk6GJQsqaUBKTNV-1" source="GMDL_d_8JTyKxyOyi_9L-21" target="GMDL_d_8JTyKxyOyi_9L-29">
          <mxGeometry y="20" relative="1" as="geometry">
            <mxPoint as="offset" />
            <mxPoint x="461.25" y="270.5" as="targetPoint" />
            <mxPoint x="471.25" y="20.5" as="sourcePoint" />
          </mxGeometry>
        </mxCell>
        <mxCell id="GMDL_d_8JTyKxyOyi_9L-27" value="Não" style="edgeStyle=orthogonalEdgeStyle;rounded=0;html=1;jettySize=auto;orthogonalLoop=1;fontSize=11;endArrow=classic;endFill=1;endSize=6;strokeWidth=1;shadow=0;labelBackgroundColor=none;exitX=1;exitY=0.5;exitDx=0;exitDy=0;entryX=0;entryY=0.5;entryDx=0;entryDy=0;" edge="1" parent="WIyWlLk6GJQsqaUBKTNV-1" source="GMDL_d_8JTyKxyOyi_9L-21" target="GMDL_d_8JTyKxyOyi_9L-30">
          <mxGeometry x="-0.1707" y="-12" relative="1" as="geometry">
            <mxPoint y="1" as="offset" />
            <mxPoint x="546.25" y="177.5" as="sourcePoint" />
            <mxPoint x="686.25" y="177.5" as="targetPoint" />
            <Array as="points" />
          </mxGeometry>
        </mxCell>
        <mxCell id="GMDL_d_8JTyKxyOyi_9L-33" style="edgeStyle=orthogonalEdgeStyle;rounded=0;orthogonalLoop=1;jettySize=auto;html=1;exitX=1;exitY=0.5;exitDx=0;exitDy=0;entryX=0;entryY=0.5;entryDx=0;entryDy=0;" edge="1" parent="WIyWlLk6GJQsqaUBKTNV-1" source="GMDL_d_8JTyKxyOyi_9L-29" target="GMDL_d_8JTyKxyOyi_9L-32">
          <mxGeometry relative="1" as="geometry" />
        </mxCell>
        <mxCell id="GMDL_d_8JTyKxyOyi_9L-29" value="Analisa expressão direta&lt;br&gt;Ex.:&amp;nbsp;&amp;lt;%=AwsAccessKeyId%&amp;gt;" style="rounded=1;whiteSpace=wrap;html=1;fontSize=12;glass=0;strokeWidth=1;shadow=0;" vertex="1" parent="WIyWlLk6GJQsqaUBKTNV-1">
          <mxGeometry x="380" y="270.5" width="162.5" height="50" as="geometry" />
        </mxCell>
        <mxCell id="GMDL_d_8JTyKxyOyi_9L-34" style="edgeStyle=orthogonalEdgeStyle;rounded=0;orthogonalLoop=1;jettySize=auto;html=1;exitX=0.5;exitY=1;exitDx=0;exitDy=0;entryX=0.5;entryY=0;entryDx=0;entryDy=0;" edge="1" parent="WIyWlLk6GJQsqaUBKTNV-1" source="GMDL_d_8JTyKxyOyi_9L-30" target="GMDL_d_8JTyKxyOyi_9L-32">
          <mxGeometry relative="1" as="geometry" />
        </mxCell>
        <mxCell id="GMDL_d_8JTyKxyOyi_9L-30" value="Analisa expressão direta com .Net&lt;br&gt;Ex.: &amp;lt;%for...%&amp;gt;...&amp;lt;%/&amp;gt;" style="rounded=1;whiteSpace=wrap;html=1;fontSize=12;glass=0;strokeWidth=1;shadow=0;" vertex="1" parent="WIyWlLk6GJQsqaUBKTNV-1">
          <mxGeometry x="570" y="152.75" width="150" height="49.5" as="geometry" />
        </mxCell>
        <mxCell id="GMDL_d_8JTyKxyOyi_9L-36" style="edgeStyle=orthogonalEdgeStyle;rounded=0;orthogonalLoop=1;jettySize=auto;html=1;exitX=0.5;exitY=1;exitDx=0;exitDy=0;entryX=0.5;entryY=0;entryDx=0;entryDy=0;" edge="1" parent="WIyWlLk6GJQsqaUBKTNV-1" source="GMDL_d_8JTyKxyOyi_9L-32" target="GMDL_d_8JTyKxyOyi_9L-35">
          <mxGeometry relative="1" as="geometry" />
        </mxCell>
        <mxCell id="GMDL_d_8JTyKxyOyi_9L-32" value="" style="ellipse;whiteSpace=wrap;html=1;aspect=fixed;" vertex="1" parent="WIyWlLk6GJQsqaUBKTNV-1">
          <mxGeometry x="630" y="280.5" width="30" height="30" as="geometry" />
        </mxCell>
        <mxCell id="GMDL_d_8JTyKxyOyi_9L-39" style="edgeStyle=orthogonalEdgeStyle;rounded=0;orthogonalLoop=1;jettySize=auto;html=1;exitX=0.5;exitY=1;exitDx=0;exitDy=0;entryX=1;entryY=0.5;entryDx=0;entryDy=0;" edge="1" parent="WIyWlLk6GJQsqaUBKTNV-1" source="GMDL_d_8JTyKxyOyi_9L-35" target="GMDL_d_8JTyKxyOyi_9L-41">
          <mxGeometry relative="1" as="geometry" />
        </mxCell>
        <mxCell id="GMDL_d_8JTyKxyOyi_9L-35" value="Substitui a expressão encontrado pelo resultado obtido na análise" style="rounded=1;whiteSpace=wrap;html=1;fontSize=12;glass=0;strokeWidth=1;shadow=0;" vertex="1" parent="WIyWlLk6GJQsqaUBKTNV-1">
          <mxGeometry x="480" y="410" width="160" height="60" as="geometry" />
        </mxCell>
        <mxCell id="GMDL_d_8JTyKxyOyi_9L-44" style="edgeStyle=orthogonalEdgeStyle;rounded=0;orthogonalLoop=1;jettySize=auto;html=1;exitX=0;exitY=0.5;exitDx=0;exitDy=0;entryX=0;entryY=0.5;entryDx=0;entryDy=0;" edge="1" parent="WIyWlLk6GJQsqaUBKTNV-1" source="GMDL_d_8JTyKxyOyi_9L-38" target="WIyWlLk6GJQsqaUBKTNV-12">
          <mxGeometry relative="1" as="geometry">
            <Array as="points">
              <mxPoint x="80" y="610" />
              <mxPoint x="80" y="345" />
            </Array>
          </mxGeometry>
        </mxCell>
        <mxCell id="GMDL_d_8JTyKxyOyi_9L-38" value="Escreve no arquivo de saída" style="rounded=1;whiteSpace=wrap;html=1;fontSize=12;glass=0;strokeWidth=1;shadow=0;" vertex="1" parent="WIyWlLk6GJQsqaUBKTNV-1">
          <mxGeometry x="295" y="585" width="130" height="50" as="geometry" />
        </mxCell>
        <mxCell id="GMDL_d_8JTyKxyOyi_9L-43" style="edgeStyle=orthogonalEdgeStyle;rounded=0;orthogonalLoop=1;jettySize=auto;html=1;exitX=0.5;exitY=1;exitDx=0;exitDy=0;entryX=0.5;entryY=0;entryDx=0;entryDy=0;" edge="1" parent="WIyWlLk6GJQsqaUBKTNV-1" source="GMDL_d_8JTyKxyOyi_9L-41" target="GMDL_d_8JTyKxyOyi_9L-38">
          <mxGeometry relative="1" as="geometry" />
        </mxCell>
        <mxCell id="GMDL_d_8JTyKxyOyi_9L-41" value="" style="ellipse;whiteSpace=wrap;html=1;aspect=fixed;" vertex="1" parent="WIyWlLk6GJQsqaUBKTNV-1">
          <mxGeometry x="345" y="510" width="30" height="30" as="geometry" />
        </mxCell>
      </root>
    </mxGraphModel>
  </diagram>
</mxfile>
